<svg width="37" height="37" viewBox="0 0 37 37" fill="none" xmlns="http://www.w3.org/2000/svg">
<path d="M18.8206 0.899841L0.895752 5.38106V8.36855L18.8206 3.88732L36.7455 8.36855V5.38106L18.8206 0.899841ZM10.5476 9.86229C6.09811 9.86229 1.75753 11.8236 1.75753 11.8236L0.895752 12.2418V35.2559H16.4504C16.9303 36.1491 17.8017 36.7496 18.8206 36.7496C19.8382 36.7496 20.711 36.1491 21.1909 35.2559H36.7455V12.2433L35.8838 11.8236C35.8838 11.8236 31.5432 9.86229 27.0937 9.86229C23.0702 9.86229 19.5376 11.3262 18.8206 11.6369C18.1037 11.3262 14.5711 9.86229 10.5476 9.86229ZM10.5476 12.8498C13.2143 12.8498 16.063 13.7834 17.4418 14.2972V30.9151C15.9072 30.3669 13.3866 29.6081 10.5476 29.6081C7.6493 29.6081 5.29011 30.331 3.65343 30.9151V14.2972C4.71513 13.8805 7.51417 12.8498 10.5476 12.8498ZM27.0937 12.8498C30.1271 12.8498 32.9262 13.8819 33.9879 14.2972V30.9151C32.3498 30.3325 29.992 29.6081 27.0937 29.6081C24.2546 29.6081 21.7341 30.3669 20.1995 30.9151V14.2972C21.5783 13.7834 24.427 12.8498 27.0937 12.8498Z" fill="#9B35DE"/>
</svg>
