<svg width="35" height="35" viewBox="0 0 35 35" fill="none" xmlns="http://www.w3.org/2000/svg">
<path d="M25.1051 16.8167C27.4656 16.8167 29.7294 17.7544 31.3985 19.4235C33.0676 21.0926 34.0053 23.3564 34.0053 25.7169C34.0053 28.0773 33.0676 30.3411 31.3985 32.0103C29.7294 33.6794 27.4656 34.6171 25.1051 34.6171C22.7446 34.6171 20.4808 33.6794 18.8117 32.0103C17.1426 30.3411 16.2049 28.0773 16.2049 25.7169C16.2049 23.3564 17.1426 21.0926 18.8117 19.4235C20.4808 17.7544 22.7446 16.8167 25.1051 16.8167ZM25.1051 20.0531L24.9595 20.0644C24.7978 20.094 24.649 20.172 24.5328 20.2882C24.4165 20.4044 24.3385 20.5533 24.3089 20.7149L24.296 20.8606V24.9061L20.2456 24.9078L20.1 24.9207C19.9383 24.9502 19.7894 25.0283 19.6732 25.1445C19.557 25.2607 19.479 25.4096 19.4494 25.5712L19.4365 25.7169L19.4494 25.8625C19.479 26.0242 19.557 26.173 19.6732 26.2892C19.7894 26.4054 19.9383 26.4835 20.1 26.513L20.2456 26.526H24.296V30.578L24.3106 30.7236C24.3401 30.8853 24.4182 31.0341 24.5344 31.1503C24.6506 31.2666 24.7994 31.3446 24.9611 31.3742L25.1067 31.3871L25.2524 31.3742C25.414 31.3446 25.5629 31.2666 25.6791 31.1503C25.7953 31.0341 25.8734 30.8853 25.9029 30.7236L25.9158 30.578V26.5244L29.9662 26.526L30.1119 26.513C30.2735 26.4835 30.4224 26.4054 30.5386 26.2892C30.6548 26.173 30.7329 26.0242 30.7624 25.8625L30.7754 25.7169L30.7624 25.5712C30.7329 25.4096 30.6548 25.2607 30.5386 25.1445C30.4224 25.0283 30.2735 24.9502 30.1119 24.9207L29.9662 24.9078H25.9126V20.8622L25.8997 20.7166C25.8704 20.5546 25.7925 20.4054 25.6763 20.2889C25.56 20.1724 25.411 20.0941 25.2491 20.0644L25.1035 20.0515L25.1051 20.0531ZM16.2389 20.0531C15.7544 20.8097 15.3693 21.6255 15.0932 22.4804H11.7548C11.6475 22.4804 11.5446 22.523 11.4687 22.5989C11.3929 22.6748 11.3502 22.7777 11.3502 22.885V24.5032C11.3502 26.0842 12.3406 27.0033 14.6983 27.2687C14.8278 28.1361 15.0624 28.9679 15.3877 29.7543C11.2564 29.5326 8.92291 27.7769 8.92291 24.5032V22.885C8.92291 21.3218 10.19 20.0531 11.7548 20.0531H16.2405H16.2389ZM9.93592 11.962C9.73149 12.7541 9.67878 13.5777 9.78057 14.3893H2.85459C2.74729 14.3893 2.64439 14.4319 2.56853 14.5078C2.49266 14.5837 2.45003 14.6866 2.45003 14.7939V16.4121C2.45003 18.3151 3.88378 19.2602 7.4115 19.2602C8.06532 19.2664 8.71871 19.2242 9.3663 19.1339C8.44041 19.7205 7.76428 20.629 7.46813 21.6843L7.4115 21.6859C2.7041 21.6859 0.0227051 19.922 0.0227051 16.4121V14.7939C0.0227316 14.0832 0.289988 13.3985 0.771423 12.8757C1.25286 12.3529 1.91327 12.0302 2.62157 11.9717L2.85459 11.962H9.93592ZM16.2049 8.72556C17.4924 8.72556 18.7272 9.23703 19.6377 10.1475C20.5481 11.0579 21.0596 12.2927 21.0596 13.5802C21.0596 14.8678 20.5481 16.1026 19.6377 17.013C18.7272 17.9234 17.4924 18.4349 16.2049 18.4349C14.9174 18.4349 13.6826 17.9234 12.7721 17.013C11.8617 16.1026 11.3502 14.8678 11.3502 13.5802C11.3502 12.2927 11.8617 11.0579 12.7721 10.1475C13.6826 9.23703 14.9174 8.72556 16.2049 8.72556ZM29.5552 11.962C31.1184 11.962 32.3871 13.2307 32.3871 14.7939L32.3839 16.3506C32.4195 16.9015 32.3721 17.4547 32.2431 17.9915C31.5571 17.3571 30.7898 16.8167 29.9614 16.3846L29.9598 14.7939C29.9598 14.6866 29.9171 14.5837 29.8413 14.5078C29.7654 14.4319 29.6625 14.3893 29.5552 14.3893H22.6276C22.729 13.5777 22.6769 12.7543 22.4739 11.962H29.5552ZM16.2049 11.1529C15.5611 11.1529 14.9437 11.4086 14.4885 11.8638C14.0333 12.319 13.7776 12.9365 13.7776 13.5802C13.7776 14.224 14.0333 14.8414 14.4885 15.2966C14.9437 15.7518 15.5611 16.0075 16.2049 16.0075C16.8487 16.0075 17.4661 15.7518 17.9213 15.2966C18.3765 14.8414 18.6322 14.224 18.6322 13.5802C18.6322 12.9365 18.3765 12.319 17.9213 11.8638C17.4661 11.4086 16.8487 11.1529 16.2049 11.1529ZM7.30469 0.63446C8.59223 0.63446 9.82703 1.14593 10.7375 2.05636C11.6479 2.96678 12.1594 4.20158 12.1594 5.48912C12.1594 6.77665 11.6479 8.01146 10.7375 8.92188C9.82703 9.83231 8.59223 10.3438 7.30469 10.3438C6.01716 10.3438 4.78236 9.83231 3.87193 8.92188C2.96151 8.01146 2.45003 6.77665 2.45003 5.48912C2.45003 4.20158 2.96151 2.96678 3.87193 2.05636C4.78236 1.14593 6.01716 0.63446 7.30469 0.63446ZM25.1051 0.63446C26.3926 0.63446 27.6274 1.14593 28.5379 2.05636C29.4483 2.96678 29.9598 4.20158 29.9598 5.48912C29.9598 6.77665 29.4483 8.01146 28.5379 8.92188C27.6274 9.83231 26.3926 10.3438 25.1051 10.3438C23.8176 10.3438 22.5828 9.83231 21.6723 8.92188C20.7619 8.01146 20.2505 6.77665 20.2505 5.48912C20.2505 4.20158 20.7619 2.96678 21.6723 2.05636C22.5828 1.14593 23.8176 0.63446 25.1051 0.63446ZM7.30469 3.06179C6.66093 3.06179 6.04352 3.31753 5.58831 3.77274C5.1331 4.22795 4.87736 4.84535 4.87736 5.48912C4.87736 6.13289 5.1331 6.75029 5.58831 7.2055C6.04352 7.66071 6.66093 7.91645 7.30469 7.91645C7.94846 7.91645 8.56586 7.66071 9.02107 7.2055C9.47629 6.75029 9.73202 6.13289 9.73202 5.48912C9.73202 4.84535 9.47629 4.22795 9.02107 3.77274C8.56586 3.31753 7.94846 3.06179 7.30469 3.06179ZM25.1051 3.06179C24.4613 3.06179 23.8439 3.31753 23.3887 3.77274C22.9335 4.22795 22.6778 4.84535 22.6778 5.48912C22.6778 6.13289 22.9335 6.75029 23.3887 7.2055C23.8439 7.66071 24.4613 7.91645 25.1051 7.91645C25.7489 7.91645 26.3663 7.66071 26.8215 7.2055C27.2767 6.75029 27.5324 6.13289 27.5324 5.48912C27.5324 4.84535 27.2767 4.22795 26.8215 3.77274C26.3663 3.31753 25.7489 3.06179 25.1051 3.06179Z" fill="#7AD07E"/>
</svg>
